<svg width="100" height="100" viewBox="0 0 100 100" fill="none" xmlns="http://www.w3.org/2000/svg">
<path d="M53.9167 50L76.9445 26.9722C77.3996 26.4408 77.6374 25.7572 77.6104 25.0581C77.5834 24.359 77.2936 23.6959 76.7988 23.2012C76.3041 22.7065 75.641 22.4167 74.9419 22.3896C74.2428 22.3626 73.5592 22.6004 73.0278 23.0555L50.0001 46.0833L26.9723 23.0277C26.4492 22.5047 25.7398 22.2108 25.0001 22.2108C24.2603 22.2108 23.5509 22.5047 23.0278 23.0277C22.5048 23.5508 22.2109 24.2602 22.2109 25C22.2109 25.7397 22.5048 26.4491 23.0278 26.9722L46.0834 50L23.0278 73.0277C22.7371 73.2768 22.5009 73.5832 22.3342 73.9278C22.1674 74.2724 22.0737 74.6478 22.059 75.0304C22.0442 75.4129 22.1086 75.7944 22.2483 76.1509C22.3879 76.5073 22.5998 76.8311 22.8705 77.1018C23.1412 77.3725 23.4649 77.5843 23.8214 77.7239C24.1778 77.8636 24.5593 77.9281 24.9419 77.9133C25.3244 77.8985 25.6998 77.8048 26.0444 77.6381C26.389 77.4714 26.6955 77.2352 26.9445 76.9444L50.0001 53.9166L73.0278 76.9444C73.5592 77.3995 74.2428 77.6373 74.9419 77.6103C75.641 77.5833 76.3041 77.2935 76.7988 76.7987C77.2936 76.304 77.5834 75.6409 77.6104 74.9418C77.6374 74.2427 77.3996 73.5591 76.9445 73.0277L53.9167 50Z" fill="#F9F9F9"/>
</svg>
